<mxfile host="Electron" modified="2024-02-25T20:21:49.412Z" agent="Mozilla/5.0 (Windows NT 10.0; Win64; x64) AppleWebKit/537.36 (KHTML, like Gecko) draw.io/22.1.16 Chrome/120.0.6099.109 Electron/28.1.0 Safari/537.36" etag="fnaUYCqp7Lat5H-0Re8W" version="22.1.16" type="device">
  <diagram name="PÃ¡gina-1" id="oXDHa3djmnlVN0VwUwXR">
    <mxGraphModel dx="926" dy="498" grid="1" gridSize="10" guides="1" tooltips="1" connect="1" arrows="1" fold="1" page="1" pageScale="1" pageWidth="827" pageHeight="1169" math="0" shadow="0">
      <root>
        <mxCell id="0" />
        <mxCell id="1" parent="0" />
        <mxCell id="RQPxN-FBi5--1pjkKrgP-7" value="Maqueta de control" style="swimlane;whiteSpace=wrap;html=1;" vertex="1" parent="1">
          <mxGeometry x="140" y="130" width="160" height="320" as="geometry" />
        </mxCell>
        <mxCell id="RQPxN-FBi5--1pjkKrgP-2" value="PLC&lt;br&gt;192.168.250.1" style="shape=process;whiteSpace=wrap;html=1;backgroundOutline=1;" vertex="1" parent="RQPxN-FBi5--1pjkKrgP-7">
          <mxGeometry x="20" y="140" width="120" height="60" as="geometry" />
        </mxCell>
        <mxCell id="RQPxN-FBi5--1pjkKrgP-5" value="Botonera" style="rounded=0;whiteSpace=wrap;html=1;" vertex="1" parent="RQPxN-FBi5--1pjkKrgP-7">
          <mxGeometry x="40" y="40" width="80" height="40" as="geometry" />
        </mxCell>
        <mxCell id="RQPxN-FBi5--1pjkKrgP-9" value="Switch" style="rounded=0;whiteSpace=wrap;html=1;" vertex="1" parent="RQPxN-FBi5--1pjkKrgP-7">
          <mxGeometry x="40" y="260" width="80" height="40" as="geometry" />
        </mxCell>
        <mxCell id="RQPxN-FBi5--1pjkKrgP-12" value="" style="endArrow=classic;html=1;rounded=0;exitX=0.505;exitY=1.08;exitDx=0;exitDy=0;exitPerimeter=0;entryX=0.5;entryY=0;entryDx=0;entryDy=0;" edge="1" parent="RQPxN-FBi5--1pjkKrgP-7" source="RQPxN-FBi5--1pjkKrgP-5" target="RQPxN-FBi5--1pjkKrgP-2">
          <mxGeometry relative="1" as="geometry">
            <mxPoint x="50" y="110" as="sourcePoint" />
            <mxPoint x="150" y="110" as="targetPoint" />
          </mxGeometry>
        </mxCell>
        <mxCell id="RQPxN-FBi5--1pjkKrgP-13" value="24Vdc" style="edgeLabel;resizable=0;html=1;align=center;verticalAlign=middle;" connectable="0" vertex="1" parent="RQPxN-FBi5--1pjkKrgP-12">
          <mxGeometry relative="1" as="geometry" />
        </mxCell>
        <mxCell id="RQPxN-FBi5--1pjkKrgP-20" value="" style="endArrow=classic;startArrow=classic;html=1;rounded=0;entryX=0.5;entryY=1;entryDx=0;entryDy=0;exitX=0.5;exitY=0;exitDx=0;exitDy=0;" edge="1" parent="RQPxN-FBi5--1pjkKrgP-7" source="RQPxN-FBi5--1pjkKrgP-9" target="RQPxN-FBi5--1pjkKrgP-2">
          <mxGeometry width="50" height="50" relative="1" as="geometry">
            <mxPoint x="60" y="270" as="sourcePoint" />
            <mxPoint x="110" y="220" as="targetPoint" />
          </mxGeometry>
        </mxCell>
        <mxCell id="RQPxN-FBi5--1pjkKrgP-21" value="EthernetIP" style="edgeLabel;html=1;align=center;verticalAlign=middle;resizable=0;points=[];" vertex="1" connectable="0" parent="RQPxN-FBi5--1pjkKrgP-20">
          <mxGeometry x="0.0133" y="-1" relative="1" as="geometry">
            <mxPoint as="offset" />
          </mxGeometry>
        </mxCell>
        <mxCell id="RQPxN-FBi5--1pjkKrgP-3" value="PC&lt;br&gt;192.168.250.x" style="shape=process;whiteSpace=wrap;html=1;backgroundOutline=1;" vertex="1" parent="1">
          <mxGeometry x="320" y="320" width="120" height="60" as="geometry" />
        </mxCell>
        <mxCell id="RQPxN-FBi5--1pjkKrgP-22" value="HMI&lt;br&gt;192.168.250.2" style="shape=process;whiteSpace=wrap;html=1;backgroundOutline=1;size=0;" vertex="1" parent="1">
          <mxGeometry x="20" y="320" width="100" height="60" as="geometry" />
        </mxCell>
        <mxCell id="RQPxN-FBi5--1pjkKrgP-26" value="" style="endArrow=classic;startArrow=classic;html=1;rounded=0;entryX=0;entryY=0.5;entryDx=0;entryDy=0;exitX=0.5;exitY=1;exitDx=0;exitDy=0;" edge="1" parent="1" source="RQPxN-FBi5--1pjkKrgP-22" target="RQPxN-FBi5--1pjkKrgP-9">
          <mxGeometry width="50" height="50" relative="1" as="geometry">
            <mxPoint x="20" y="370" as="sourcePoint" />
            <mxPoint x="70" y="370" as="targetPoint" />
            <Array as="points">
              <mxPoint x="70" y="410" />
            </Array>
          </mxGeometry>
        </mxCell>
        <mxCell id="RQPxN-FBi5--1pjkKrgP-27" value="EthernetIP" style="edgeLabel;html=1;align=center;verticalAlign=middle;resizable=0;points=[];" vertex="1" connectable="0" parent="RQPxN-FBi5--1pjkKrgP-26">
          <mxGeometry x="-0.0844" y="-2" relative="1" as="geometry">
            <mxPoint x="-4" y="-2" as="offset" />
          </mxGeometry>
        </mxCell>
        <mxCell id="RQPxN-FBi5--1pjkKrgP-28" value="" style="endArrow=classic;startArrow=classic;html=1;rounded=0;entryX=1;entryY=0.5;entryDx=0;entryDy=0;exitX=0.5;exitY=1;exitDx=0;exitDy=0;" edge="1" parent="1" source="RQPxN-FBi5--1pjkKrgP-3" target="RQPxN-FBi5--1pjkKrgP-9">
          <mxGeometry width="50" height="50" relative="1" as="geometry">
            <mxPoint x="410" y="410" as="sourcePoint" />
            <mxPoint x="480" y="360" as="targetPoint" />
            <Array as="points">
              <mxPoint x="380" y="410" />
            </Array>
          </mxGeometry>
        </mxCell>
        <mxCell id="RQPxN-FBi5--1pjkKrgP-30" value="EthernetIP" style="edgeLabel;html=1;align=center;verticalAlign=middle;resizable=0;points=[];" vertex="1" connectable="0" parent="RQPxN-FBi5--1pjkKrgP-28">
          <mxGeometry x="-0.0311" y="1" relative="1" as="geometry">
            <mxPoint x="3" y="-1" as="offset" />
          </mxGeometry>
        </mxCell>
        <mxCell id="RQPxN-FBi5--1pjkKrgP-31" value="Mesa cartesiana" style="swimlane;whiteSpace=wrap;html=1;" vertex="1" parent="1">
          <mxGeometry x="460" y="130" width="330" height="320" as="geometry" />
        </mxCell>
        <mxCell id="RQPxN-FBi5--1pjkKrgP-34" value="SERVODRIVE&lt;br&gt;Nodo&amp;nbsp;1" style="shape=process;whiteSpace=wrap;html=1;backgroundOutline=1;size=0;" vertex="1" parent="RQPxN-FBi5--1pjkKrgP-31">
          <mxGeometry x="30" y="90" width="100" height="60" as="geometry" />
        </mxCell>
        <mxCell id="RQPxN-FBi5--1pjkKrgP-35" value="SERVODRIVE&lt;br&gt;Nodo 2" style="shape=process;whiteSpace=wrap;html=1;backgroundOutline=1;size=0;" vertex="1" parent="RQPxN-FBi5--1pjkKrgP-31">
          <mxGeometry x="180" y="90" width="100" height="60" as="geometry" />
        </mxCell>
        <mxCell id="RQPxN-FBi5--1pjkKrgP-36" value="Servo y&lt;br&gt;Cortadora" style="rounded=0;whiteSpace=wrap;html=1;" vertex="1" parent="RQPxN-FBi5--1pjkKrgP-31">
          <mxGeometry x="190" y="240" width="80" height="40" as="geometry" />
        </mxCell>
        <mxCell id="RQPxN-FBi5--1pjkKrgP-37" value="Servo x&lt;br&gt;No usado" style="rounded=0;whiteSpace=wrap;html=1;" vertex="1" parent="RQPxN-FBi5--1pjkKrgP-31">
          <mxGeometry x="40" y="240" width="80" height="40" as="geometry" />
        </mxCell>
        <mxCell id="RQPxN-FBi5--1pjkKrgP-40" value="IN&lt;span style=&quot;white-space: pre;&quot;&gt;&#x9;&lt;/span&gt;&lt;span style=&quot;white-space: pre;&quot;&gt;&#x9;&lt;/span&gt;OUT" style="rounded=0;whiteSpace=wrap;html=1;" vertex="1" parent="RQPxN-FBi5--1pjkKrgP-31">
          <mxGeometry x="30" y="70" width="100" height="20" as="geometry" />
        </mxCell>
        <mxCell id="RQPxN-FBi5--1pjkKrgP-41" value="IN&lt;span style=&quot;white-space: pre;&quot;&gt;&#x9;&lt;/span&gt;&lt;span style=&quot;white-space: pre;&quot;&gt;&#x9;&lt;/span&gt;OUT" style="rounded=0;whiteSpace=wrap;html=1;" vertex="1" parent="RQPxN-FBi5--1pjkKrgP-31">
          <mxGeometry x="180" y="70" width="100" height="20" as="geometry" />
        </mxCell>
        <mxCell id="RQPxN-FBi5--1pjkKrgP-42" value="" style="endArrow=classic;html=1;rounded=0;exitX=0.75;exitY=0;exitDx=0;exitDy=0;entryX=0.25;entryY=0;entryDx=0;entryDy=0;" edge="1" parent="RQPxN-FBi5--1pjkKrgP-31" source="RQPxN-FBi5--1pjkKrgP-40" target="RQPxN-FBi5--1pjkKrgP-41">
          <mxGeometry width="50" height="50" relative="1" as="geometry">
            <mxPoint x="120" y="70" as="sourcePoint" />
            <mxPoint x="170" y="20" as="targetPoint" />
            <Array as="points">
              <mxPoint x="105" y="50" />
              <mxPoint x="205" y="50" />
            </Array>
          </mxGeometry>
        </mxCell>
        <mxCell id="RQPxN-FBi5--1pjkKrgP-43" value="EtherCAT" style="edgeLabel;html=1;align=center;verticalAlign=middle;resizable=0;points=[];" vertex="1" connectable="0" parent="RQPxN-FBi5--1pjkKrgP-42">
          <mxGeometry x="-0.0314" relative="1" as="geometry">
            <mxPoint as="offset" />
          </mxGeometry>
        </mxCell>
        <mxCell id="RQPxN-FBi5--1pjkKrgP-44" value="" style="endArrow=classic;html=1;rounded=0;exitX=0.25;exitY=1;exitDx=0;exitDy=0;entryX=0.195;entryY=-0.07;entryDx=0;entryDy=0;entryPerimeter=0;" edge="1" parent="RQPxN-FBi5--1pjkKrgP-31" source="RQPxN-FBi5--1pjkKrgP-34" target="RQPxN-FBi5--1pjkKrgP-37">
          <mxGeometry width="50" height="50" relative="1" as="geometry">
            <mxPoint x="-120" y="230" as="sourcePoint" />
            <mxPoint x="-70" y="180" as="targetPoint" />
          </mxGeometry>
        </mxCell>
        <mxCell id="RQPxN-FBi5--1pjkKrgP-45" value="Control" style="edgeLabel;html=1;align=center;verticalAlign=middle;resizable=0;points=[];" vertex="1" connectable="0" parent="RQPxN-FBi5--1pjkKrgP-44">
          <mxGeometry x="-0.1277" y="-1" relative="1" as="geometry">
            <mxPoint y="-12" as="offset" />
          </mxGeometry>
        </mxCell>
        <mxCell id="RQPxN-FBi5--1pjkKrgP-46" value="" style="endArrow=classic;html=1;rounded=0;exitX=0.815;exitY=-0.02;exitDx=0;exitDy=0;entryX=0.75;entryY=1;entryDx=0;entryDy=0;exitPerimeter=0;" edge="1" parent="RQPxN-FBi5--1pjkKrgP-31" source="RQPxN-FBi5--1pjkKrgP-37" target="RQPxN-FBi5--1pjkKrgP-34">
          <mxGeometry width="50" height="50" relative="1" as="geometry">
            <mxPoint x="100" y="220" as="sourcePoint" />
            <mxPoint x="150" y="170" as="targetPoint" />
          </mxGeometry>
        </mxCell>
        <mxCell id="RQPxN-FBi5--1pjkKrgP-47" value="Encoder" style="edgeLabel;html=1;align=center;verticalAlign=middle;resizable=0;points=[];" vertex="1" connectable="0" parent="RQPxN-FBi5--1pjkKrgP-46">
          <mxGeometry x="-0.0403" relative="1" as="geometry">
            <mxPoint y="8" as="offset" />
          </mxGeometry>
        </mxCell>
        <mxCell id="RQPxN-FBi5--1pjkKrgP-48" value="" style="endArrow=classic;html=1;rounded=0;exitX=0.25;exitY=1;exitDx=0;exitDy=0;entryX=0.2;entryY=-0.02;entryDx=0;entryDy=0;entryPerimeter=0;" edge="1" parent="RQPxN-FBi5--1pjkKrgP-31" target="RQPxN-FBi5--1pjkKrgP-36">
          <mxGeometry width="50" height="50" relative="1" as="geometry">
            <mxPoint x="204.79999999999995" y="151" as="sourcePoint" />
            <mxPoint x="205.79999999999995" y="248" as="targetPoint" />
          </mxGeometry>
        </mxCell>
        <mxCell id="RQPxN-FBi5--1pjkKrgP-49" value="Control" style="edgeLabel;html=1;align=center;verticalAlign=middle;resizable=0;points=[];" vertex="1" connectable="0" parent="RQPxN-FBi5--1pjkKrgP-48">
          <mxGeometry x="-0.1277" y="-1" relative="1" as="geometry">
            <mxPoint y="-12" as="offset" />
          </mxGeometry>
        </mxCell>
        <mxCell id="RQPxN-FBi5--1pjkKrgP-50" value="" style="endArrow=classic;html=1;rounded=0;exitX=0.82;exitY=-0.02;exitDx=0;exitDy=0;entryX=0.75;entryY=1;entryDx=0;entryDy=0;exitPerimeter=0;" edge="1" parent="RQPxN-FBi5--1pjkKrgP-31" source="RQPxN-FBi5--1pjkKrgP-36">
          <mxGeometry width="50" height="50" relative="1" as="geometry">
            <mxPoint x="254.79999999999995" y="250" as="sourcePoint" />
            <mxPoint x="254.79999999999995" y="151" as="targetPoint" />
          </mxGeometry>
        </mxCell>
        <mxCell id="RQPxN-FBi5--1pjkKrgP-51" value="Encoder" style="edgeLabel;html=1;align=center;verticalAlign=middle;resizable=0;points=[];" vertex="1" connectable="0" parent="RQPxN-FBi5--1pjkKrgP-50">
          <mxGeometry x="-0.0403" relative="1" as="geometry">
            <mxPoint y="8" as="offset" />
          </mxGeometry>
        </mxCell>
        <mxCell id="RQPxN-FBi5--1pjkKrgP-55" value="Sensores" style="rounded=0;whiteSpace=wrap;html=1;" vertex="1" parent="RQPxN-FBi5--1pjkKrgP-31">
          <mxGeometry x="40" y="280" width="80" height="20" as="geometry" />
        </mxCell>
        <mxCell id="RQPxN-FBi5--1pjkKrgP-56" value="Sensores" style="rounded=0;whiteSpace=wrap;html=1;" vertex="1" parent="RQPxN-FBi5--1pjkKrgP-31">
          <mxGeometry x="190" y="280" width="80" height="20" as="geometry" />
        </mxCell>
        <mxCell id="RQPxN-FBi5--1pjkKrgP-57" value="" style="endArrow=classic;html=1;rounded=0;exitX=1;exitY=0.5;exitDx=0;exitDy=0;entryX=1;entryY=0.5;entryDx=0;entryDy=0;" edge="1" parent="RQPxN-FBi5--1pjkKrgP-31" source="RQPxN-FBi5--1pjkKrgP-55" target="RQPxN-FBi5--1pjkKrgP-34">
          <mxGeometry width="50" height="50" relative="1" as="geometry">
            <mxPoint x="150" y="300" as="sourcePoint" />
            <mxPoint x="200" y="250" as="targetPoint" />
            <Array as="points">
              <mxPoint x="150" y="290" />
              <mxPoint x="150" y="120" />
            </Array>
          </mxGeometry>
        </mxCell>
        <mxCell id="RQPxN-FBi5--1pjkKrgP-59" value="24Vdc" style="edgeLabel;html=1;align=center;verticalAlign=middle;resizable=0;points=[];" vertex="1" connectable="0" parent="RQPxN-FBi5--1pjkKrgP-57">
          <mxGeometry x="-0.2764" relative="1" as="geometry">
            <mxPoint as="offset" />
          </mxGeometry>
        </mxCell>
        <mxCell id="RQPxN-FBi5--1pjkKrgP-60" value="" style="endArrow=classic;html=1;rounded=0;exitX=1;exitY=0.5;exitDx=0;exitDy=0;entryX=1;entryY=0.5;entryDx=0;entryDy=0;" edge="1" parent="RQPxN-FBi5--1pjkKrgP-31">
          <mxGeometry width="50" height="50" relative="1" as="geometry">
            <mxPoint x="270" y="290" as="sourcePoint" />
            <mxPoint x="280" y="120" as="targetPoint" />
            <Array as="points">
              <mxPoint x="300" y="290" />
              <mxPoint x="300" y="120" />
            </Array>
          </mxGeometry>
        </mxCell>
        <mxCell id="RQPxN-FBi5--1pjkKrgP-61" value="24Vdc" style="edgeLabel;html=1;align=center;verticalAlign=middle;resizable=0;points=[];" vertex="1" connectable="0" parent="RQPxN-FBi5--1pjkKrgP-60">
          <mxGeometry x="-0.2764" relative="1" as="geometry">
            <mxPoint as="offset" />
          </mxGeometry>
        </mxCell>
        <mxCell id="RQPxN-FBi5--1pjkKrgP-52" value="" style="endArrow=classic;html=1;rounded=0;exitX=1;exitY=0.5;exitDx=0;exitDy=0;entryX=0.25;entryY=0;entryDx=0;entryDy=0;" edge="1" parent="1" source="RQPxN-FBi5--1pjkKrgP-2" target="RQPxN-FBi5--1pjkKrgP-40">
          <mxGeometry width="50" height="50" relative="1" as="geometry">
            <mxPoint x="360" y="310" as="sourcePoint" />
            <mxPoint x="410" y="260" as="targetPoint" />
            <Array as="points">
              <mxPoint x="380" y="300" />
              <mxPoint x="380" y="180" />
              <mxPoint x="450" y="180" />
              <mxPoint x="515" y="180" />
            </Array>
          </mxGeometry>
        </mxCell>
        <mxCell id="RQPxN-FBi5--1pjkKrgP-53" value="EtherCAT" style="edgeLabel;html=1;align=center;verticalAlign=middle;resizable=0;points=[];" vertex="1" connectable="0" parent="RQPxN-FBi5--1pjkKrgP-52">
          <mxGeometry x="-0.1585" y="1" relative="1" as="geometry">
            <mxPoint as="offset" />
          </mxGeometry>
        </mxCell>
      </root>
    </mxGraphModel>
  </diagram>
</mxfile>
